<mxfile host="app.diagrams.net" agent="Mozilla/5.0 (Windows NT 10.0; Win64; x64) AppleWebKit/537.36 (KHTML, like Gecko) Chrome/128.0.0.0 Safari/537.36" version="24.7.8">
  <diagram name="PÃ¡gina-1" id="vvOweXmZhkZmuiWsAWE3">
    <mxGraphModel dx="1195" dy="650" grid="1" gridSize="10" guides="1" tooltips="1" connect="1" arrows="1" fold="1" page="1" pageScale="1" pageWidth="827" pageHeight="1169" math="0" shadow="0">
      <root>
        <mxCell id="0" />
        <mxCell id="1" parent="0" />
        <mxCell id="eOCsp5Y1OMVJkfmikGgT-2" value="" style="shape=image;verticalLabelPosition=bottom;labelBackgroundColor=default;verticalAlign=top;aspect=fixed;imageAspect=0;image=data:image/png,iVBORw0KGgoAAAANSUhEUgAAAX8AAAAhCAYAAAAxt6tUAAAAAXNSR0IArs4c6QAAAARnQU1BAACxjwv8YQUAAAAJcEhZcwAADsMAAA7DAcdvqGQAAAifSURBVHhe7ZtBaxRLEMfL9xkiHowIKwtiLllyWoU1BDWecoiQS+CxEHBRcgkhF8ElrOAlhFzER4SFIOwlYA6eEiNBFzSnsLm8hxAUxHiQ5AOoF19Vd89uz2Rmumd2Jptk6gdLMjuZmZ6urn9XVXfO/fz1+w8wDMMwmeIv9ZNhGIbJECz+DMMwGYTFn2EYJoOw+DMMw2QQFn+GYZgMwuLPMAyTQVj8GYZhMgiLP8MwTAZh8WcYhskgLP4MwzAZhMWfYRgmg7D4MwzDZJBQ8W8tDED+/is4VMfJcACv7w/A9NqBOvayC8+vDsDzHXV4nPx4BdM2z95ZgDz+nfMxvUt+YVcd+yH7w/TMbm0Rej29z7HbGVH93enLB/D6hzoXBwv72fWjbHunXQvQUmfShtoX2mepQOPU8I5izKfRD4ZxomxqHkfHZSM7fz0NBIs/GntirwbbL+5Bn/rqzHPhHjxrlGFpOVwcWl9zsP3pX9ijz/sawKNqgGgNwkP6m7lBdRyTbm2Rgi0P1x4YJjUDJCY338Kd96of6dPIwf6+dj7qhGRhv8LcO1iEKqyGOe+PJkCl067VqRWY6OZdUyNBISrl4JL69URBNkUbPBs/r744bdDE2mVQkxKB4t/aWoGZSoaE32GobBSHwrjWLxdKcKfU7IhWCnRri5NoS2oTTFVg7IL6ghiag4dD6ve4GO13HsYqhgkeBWdMa0dhpAyw9znaRHQqkJnp9BpAfx7gG03oiWeAzEklQPx3YbtehmKQI1JUdiTN0ss1KaXNIr3zzqLutFGk9e3nuv9WRKs4uFv0E8/7p5Ln4frdEixtWUZ6GCW+aZagv18du/BLad19M732XX0fhMEWzv0CI1PT9Udx+ulQ2Fm1tS0K8nnFRxgd1ydD+jGcS1dKgYIqbDiJk0OzCkV6tnq3xOw3dBtmmm/ho2U0Jiaq/JVUJk/XePWzoW4D/Z2FLwzDLJphaZLOdcZ6mA+4kZnpPCzDbL0KdajBXpzs0KgHUdrkxX0fgSoFte+VYuBl5a9BNhLfT8ISNGH2Jp1z+sh9z3TKaWb8xX9nE5bC0kByHliBbd0g4poaTJDIoCDu332XfNqsouw3HzSnF+JbhimRFqLQQaP93O2nALOPPZEMCooY5Hg+KJXsu5yzjPRwYN6swrXGP+4INhAyOjpsvtNG4XjowIGYbIFidwmjtkCM1wdAwrt1W7WzgWJZhXkxqDFyfkF9i+I9Jd8jTkreN14R9yz6DPzCHD6zgdE2jidRXtPLZonY7yL0W2ZrNOGIklm3pTsfSBDFvUUf42dkEybq6qSitQWw6pzXS4yiHPIOFtEMMw0674xBCx9wcQAf1wEWn5ZhY71pMeZ9MOlB5DaFQMIvfE71ySfsk+UqbKjTyWLnr4E2wkxW+A6UYFGUN+egQBekpY8RCa75h0Y6g1CcwohDi64oOhrFiEtcgwPzoeaYyaXNMqrTB+nhh7ewMXVbdipFMpqT9t24BaPNL/BNHUuciSKE/pzPdV5oYEwC4CC0LlXsrODAKcOq3sbxmnDgUAxRpxDLMHGKFbXq7RyECRT7jc+mLCUKMuoUA5+iH+tyQxL2kxPmf1/9MgcNjNyK67cMayXeKE7/hER0KGL1OorCE+3eKBar6Fc6hTklGIRVidHGBzRoTOYrMDaOz84b1kICMehB1DaF0HqJQo9BR8fnMBh5UoNRdeRPTBtZ+mtkG6Wmj9HwFf/Dr1/Ub8GIBtc3VcdRaQFf+obmlHoqRCl8QsiB46TsFLU0YWZEEz49JcQI4UhEkNTCFg0MjEBlZGOH6NeIz7exRRixr/drZwoDVExcFMECZQEW5YCk7GcEBWPZZq1EZkJOFOf+aKLgZf8Ljk18F2PGqAuXLPMYMfmADkWnStzIFnHXXIx6EKVNgRzAtz2A0SsX1bEt8Wxk768xbJSSPkbBV/xF2mxCpHo4e5OzihTvFlxXA1nWbLVUiFL4pNBnVlXycerZoias7yDBFCw8IugBEaNwK1uE0O31x4N0ztWpJsy+3FXfZQCTsAjBHIY37RKBLPOE0TMfCNGDpNt07bIh80sSk7/GsFGq+hiB4LKPMcqjVE/W3927SeSsv/g+JOrpCln6oRSTSj7wtKyeo7IA6/p7CBSVmRyTIqaIi2NCiNvRkcN32DdFCt1G3D1IKeMgFoGTwGg/GUGGi4ickMyRcMySgihNeRedZbscZEmzEWFNJUEfiEyQHiTZJlmuO7KYL7KoMOLZyMZfo9sobX20x1/8xW4Ic02u8HcNYL0KddduErmY1lmU3YXnCac1YrGwvgzz66Cllt6BgQZ/HC+9FOme1YwfZdcCohbG6touldYC7QYIwcIWIpIIWjCytGUsuphUWgvevtuF1UeeEl7MdpvtRw4ctEOrQ2i/tolZ9lEZrJ7pHK5VXSUDr/h4zzt01i6S84E4+OtBsm2S5aVlbezY6EtMG1n4q52N9DWA9PXRloDIn2Zxz+q9HzSA8cU6C64EdvQTWvEeVjPrJhQTT2tklLEBndSSKMw1cFKQ2w/zV6sAlTjppc86QmLQImcDrrX7ZgC2R0xpoqUtAun2en86u3XibvUEtf3N+XgWz2m/fkktBkfaCWFhP09ZojeQIKHt95zxOgDzUHMv+IoFYNUH4nzFM1bwHpUybIjxJCfTZHwgJr56kHCbKONu5LSxg/qSWmnLwl+NNpKbJeR2XMoyjkMf7Tj389fvP+p3N7QgsZzrwX/40r7eiLtokqRn7x1Ct23qyTtRqi1roXG2gsbG+K6yXfuVHo2v0wr1q6hT975cwSRDcM2fZrQ8RnbWW/DOAFTKwRTspP03bNe2yIotLezXWhiOvEuLYc4iwZF/z+hx5M8kRI8ifyYdOPI/c5xA8WcYhmHSJrjswzAMw5xZWPwZhmEyCIs/wzBMBmHxZxiGySAs/gzDMJkD4H8ECaYji4oTSQAAAABJRU5ErkJggg==;" vertex="1" parent="1">
          <mxGeometry x="200" y="80" width="383" height="33" as="geometry" />
        </mxCell>
        <mxCell id="eOCsp5Y1OMVJkfmikGgT-3" value="(" style="ellipse;whiteSpace=wrap;html=1;aspect=fixed;" vertex="1" parent="1">
          <mxGeometry x="70" y="260" width="60" height="60" as="geometry" />
        </mxCell>
        <mxCell id="eOCsp5Y1OMVJkfmikGgT-4" value="val" style="ellipse;whiteSpace=wrap;html=1;aspect=fixed;" vertex="1" parent="1">
          <mxGeometry x="140" y="260" width="60" height="60" as="geometry" />
        </mxCell>
        <mxCell id="eOCsp5Y1OMVJkfmikGgT-5" value="|" style="ellipse;whiteSpace=wrap;html=1;aspect=fixed;" vertex="1" parent="1">
          <mxGeometry x="210" y="260" width="60" height="60" as="geometry" />
        </mxCell>
        <mxCell id="eOCsp5Y1OMVJkfmikGgT-6" value=")" style="ellipse;whiteSpace=wrap;html=1;aspect=fixed;" vertex="1" parent="1">
          <mxGeometry x="353.5" y="260" width="60" height="60" as="geometry" />
        </mxCell>
        <mxCell id="eOCsp5Y1OMVJkfmikGgT-7" value="var" style="ellipse;whiteSpace=wrap;html=1;aspect=fixed;" vertex="1" parent="1">
          <mxGeometry x="280" y="260" width="60" height="60" as="geometry" />
        </mxCell>
        <mxCell id="eOCsp5Y1OMVJkfmikGgT-8" value="?" style="ellipse;whiteSpace=wrap;html=1;aspect=fixed;" vertex="1" parent="1">
          <mxGeometry x="420" y="260" width="60" height="60" as="geometry" />
        </mxCell>
        <mxCell id="eOCsp5Y1OMVJkfmikGgT-9" value="id" style="ellipse;whiteSpace=wrap;html=1;aspect=fixed;" vertex="1" parent="1">
          <mxGeometry x="550" y="260" width="60" height="60" as="geometry" />
        </mxCell>
        <mxCell id="eOCsp5Y1OMVJkfmikGgT-10" value="(" style="ellipse;whiteSpace=wrap;html=1;aspect=fixed;" vertex="1" parent="1">
          <mxGeometry x="681" y="260" width="60" height="60" as="geometry" />
        </mxCell>
        <mxCell id="eOCsp5Y1OMVJkfmikGgT-11" value="(" style="ellipse;whiteSpace=wrap;html=1;aspect=fixed;" vertex="1" parent="1">
          <mxGeometry x="890" y="260" width="60" height="60" as="geometry" />
        </mxCell>
        <mxCell id="eOCsp5Y1OMVJkfmikGgT-12" value=":" style="ellipse;whiteSpace=wrap;html=1;aspect=fixed;" vertex="1" parent="1">
          <mxGeometry x="751" y="260" width="60" height="60" as="geometry" />
        </mxCell>
        <mxCell id="eOCsp5Y1OMVJkfmikGgT-13" value="Int" style="ellipse;whiteSpace=wrap;html=1;aspect=fixed;" vertex="1" parent="1">
          <mxGeometry x="960" y="260" width="60" height="60" as="geometry" />
        </mxCell>
        <mxCell id="eOCsp5Y1OMVJkfmikGgT-14" value="|" style="ellipse;whiteSpace=wrap;html=1;aspect=fixed;" vertex="1" parent="1">
          <mxGeometry x="1020" y="260" width="60" height="60" as="geometry" />
        </mxCell>
        <mxCell id="eOCsp5Y1OMVJkfmikGgT-15" value=")" style="ellipse;whiteSpace=wrap;html=1;aspect=fixed;" vertex="1" parent="1">
          <mxGeometry x="1240" y="260" width="60" height="60" as="geometry" />
        </mxCell>
        <mxCell id="eOCsp5Y1OMVJkfmikGgT-16" value="str" style="ellipse;whiteSpace=wrap;html=1;aspect=fixed;" vertex="1" parent="1">
          <mxGeometry x="1090" y="260" width="60" height="60" as="geometry" />
        </mxCell>
        <mxCell id="eOCsp5Y1OMVJkfmikGgT-17" value=")" style="ellipse;whiteSpace=wrap;html=1;aspect=fixed;" vertex="1" parent="1">
          <mxGeometry x="1160" y="260" width="60" height="60" as="geometry" />
        </mxCell>
        <mxCell id="eOCsp5Y1OMVJkfmikGgT-18" value="?" style="ellipse;whiteSpace=wrap;html=1;aspect=fixed;" vertex="1" parent="1">
          <mxGeometry y="340" width="60" height="60" as="geometry" />
        </mxCell>
        <mxCell id="eOCsp5Y1OMVJkfmikGgT-19" value="=" style="ellipse;whiteSpace=wrap;html=1;aspect=fixed;" vertex="1" parent="1">
          <mxGeometry x="140" y="340" width="60" height="60" as="geometry" />
        </mxCell>
        <mxCell id="eOCsp5Y1OMVJkfmikGgT-20" value="*" style="ellipse;whiteSpace=wrap;html=1;aspect=fixed;" vertex="1" parent="1">
          <mxGeometry x="354" y="340" width="60" height="60" as="geometry" />
        </mxCell>
        <mxCell id="eOCsp5Y1OMVJkfmikGgT-21" value="|" style="ellipse;whiteSpace=wrap;html=1;aspect=fixed;" vertex="1" parent="1">
          <mxGeometry x="430" y="340" width="60" height="60" as="geometry" />
        </mxCell>
        <mxCell id="eOCsp5Y1OMVJkfmikGgT-22" value="val" style="ellipse;whiteSpace=wrap;html=1;aspect=fixed;" vertex="1" parent="1">
          <mxGeometry x="500" y="340" width="60" height="60" as="geometry" />
        </mxCell>
        <mxCell id="eOCsp5Y1OMVJkfmikGgT-23" value="=" style="ellipse;whiteSpace=wrap;html=1;aspect=fixed;" vertex="1" parent="1">
          <mxGeometry x="790" y="340" width="60" height="60" as="geometry" />
        </mxCell>
        <mxCell id="eOCsp5Y1OMVJkfmikGgT-24" value="id" style="ellipse;whiteSpace=wrap;html=1;aspect=fixed;" vertex="1" parent="1">
          <mxGeometry x="640" y="340" width="60" height="60" as="geometry" />
        </mxCell>
        <mxCell id="eOCsp5Y1OMVJkfmikGgT-25" value="Pila T&amp;nbsp;" style="rounded=1;whiteSpace=wrap;html=1;" vertex="1" parent="1">
          <mxGeometry x="135" y="525" width="120" height="60" as="geometry" />
        </mxCell>
        <mxCell id="eOCsp5Y1OMVJkfmikGgT-26" value="Pila S" style="rounded=1;whiteSpace=wrap;html=1;" vertex="1" parent="1">
          <mxGeometry x="990" y="525" width="120" height="60" as="geometry" />
        </mxCell>
        <mxCell id="eOCsp5Y1OMVJkfmikGgT-27" value="(" style="ellipse;whiteSpace=wrap;html=1;aspect=fixed;" vertex="1" parent="1">
          <mxGeometry y="260" width="60" height="60" as="geometry" />
        </mxCell>
        <mxCell id="eOCsp5Y1OMVJkfmikGgT-28" value=")" style="ellipse;whiteSpace=wrap;html=1;aspect=fixed;" vertex="1" parent="1">
          <mxGeometry x="1000" y="340" width="60" height="60" as="geometry" />
        </mxCell>
        <mxCell id="eOCsp5Y1OMVJkfmikGgT-29" value="#" style="ellipse;whiteSpace=wrap;html=1;aspect=fixed;" vertex="1" parent="1">
          <mxGeometry x="1140" y="340" width="60" height="60" as="geometry" />
        </mxCell>
        <mxCell id="eOCsp5Y1OMVJkfmikGgT-30" value="." style="ellipse;whiteSpace=wrap;html=1;aspect=fixed;" vertex="1" parent="1">
          <mxGeometry x="480" y="260" width="60" height="60" as="geometry" />
        </mxCell>
        <mxCell id="eOCsp5Y1OMVJkfmikGgT-31" value="." style="ellipse;whiteSpace=wrap;html=1;aspect=fixed;" vertex="1" parent="1">
          <mxGeometry x="620" y="260" width="60" height="60" as="geometry" />
        </mxCell>
        <mxCell id="eOCsp5Y1OMVJkfmikGgT-32" value="." style="ellipse;whiteSpace=wrap;html=1;aspect=fixed;" vertex="1" parent="1">
          <mxGeometry x="70" y="340" width="60" height="60" as="geometry" />
        </mxCell>
        <mxCell id="eOCsp5Y1OMVJkfmikGgT-33" value="." style="ellipse;whiteSpace=wrap;html=1;aspect=fixed;" vertex="1" parent="1">
          <mxGeometry x="570" y="340" width="60" height="60" as="geometry" />
        </mxCell>
        <mxCell id="eOCsp5Y1OMVJkfmikGgT-34" value="." style="ellipse;whiteSpace=wrap;html=1;aspect=fixed;" vertex="1" parent="1">
          <mxGeometry x="720" y="340" width="60" height="60" as="geometry" />
        </mxCell>
        <mxCell id="eOCsp5Y1OMVJkfmikGgT-36" value="." style="ellipse;whiteSpace=wrap;html=1;aspect=fixed;" vertex="1" parent="1">
          <mxGeometry x="1070" y="340" width="60" height="60" as="geometry" />
        </mxCell>
        <mxCell id="eOCsp5Y1OMVJkfmikGgT-39" value="." style="ellipse;whiteSpace=wrap;html=1;aspect=fixed;" vertex="1" parent="1">
          <mxGeometry x="820" y="260" width="60" height="60" as="geometry" />
        </mxCell>
        <mxCell id="eOCsp5Y1OMVJkfmikGgT-40" value="data" style="ellipse;whiteSpace=wrap;html=1;aspect=fixed;" vertex="1" parent="1">
          <mxGeometry x="280" y="340" width="60" height="60" as="geometry" />
        </mxCell>
        <mxCell id="eOCsp5Y1OMVJkfmikGgT-41" value="." style="ellipse;whiteSpace=wrap;html=1;aspect=fixed;" vertex="1" parent="1">
          <mxGeometry x="70" y="340" width="60" height="60" as="geometry" />
        </mxCell>
        <mxCell id="eOCsp5Y1OMVJkfmikGgT-42" value="." style="ellipse;whiteSpace=wrap;html=1;aspect=fixed;" vertex="1" parent="1">
          <mxGeometry x="210" y="340" width="60" height="60" as="geometry" />
        </mxCell>
        <mxCell id="eOCsp5Y1OMVJkfmikGgT-43" value="." style="ellipse;whiteSpace=wrap;html=1;aspect=fixed;" vertex="1" parent="1">
          <mxGeometry x="860" y="340" width="60" height="60" as="geometry" />
        </mxCell>
        <mxCell id="eOCsp5Y1OMVJkfmikGgT-44" value="data" style="ellipse;whiteSpace=wrap;html=1;aspect=fixed;" vertex="1" parent="1">
          <mxGeometry x="930" y="340" width="60" height="60" as="geometry" />
        </mxCell>
        <mxCell id="eOCsp5Y1OMVJkfmikGgT-46" value="val" style="ellipse;whiteSpace=wrap;html=1;aspect=fixed;" vertex="1" parent="1">
          <mxGeometry x="70" y="1500" width="60" height="60" as="geometry" />
        </mxCell>
        <mxCell id="eOCsp5Y1OMVJkfmikGgT-83" style="rounded=0;orthogonalLoop=1;jettySize=auto;html=1;exitX=1;exitY=1;exitDx=0;exitDy=0;entryX=0.267;entryY=0.05;entryDx=0;entryDy=0;entryPerimeter=0;" edge="1" parent="1" source="eOCsp5Y1OMVJkfmikGgT-47" target="eOCsp5Y1OMVJkfmikGgT-49">
          <mxGeometry relative="1" as="geometry" />
        </mxCell>
        <mxCell id="eOCsp5Y1OMVJkfmikGgT-84" style="rounded=0;orthogonalLoop=1;jettySize=auto;html=1;exitX=0;exitY=1;exitDx=0;exitDy=0;entryX=1;entryY=0;entryDx=0;entryDy=0;" edge="1" parent="1" source="eOCsp5Y1OMVJkfmikGgT-47" target="eOCsp5Y1OMVJkfmikGgT-46">
          <mxGeometry relative="1" as="geometry" />
        </mxCell>
        <mxCell id="eOCsp5Y1OMVJkfmikGgT-47" value="|" style="ellipse;whiteSpace=wrap;html=1;aspect=fixed;" vertex="1" parent="1">
          <mxGeometry x="150" y="1420" width="60" height="60" as="geometry" />
        </mxCell>
        <mxCell id="eOCsp5Y1OMVJkfmikGgT-49" value="var" style="ellipse;whiteSpace=wrap;html=1;aspect=fixed;" vertex="1" parent="1">
          <mxGeometry x="210" y="1510" width="60" height="60" as="geometry" />
        </mxCell>
        <mxCell id="eOCsp5Y1OMVJkfmikGgT-85" style="rounded=0;orthogonalLoop=1;jettySize=auto;html=1;entryX=1;entryY=0;entryDx=0;entryDy=0;exitX=0;exitY=1;exitDx=0;exitDy=0;" edge="1" parent="1" source="eOCsp5Y1OMVJkfmikGgT-50" target="eOCsp5Y1OMVJkfmikGgT-47">
          <mxGeometry relative="1" as="geometry" />
        </mxCell>
        <mxCell id="eOCsp5Y1OMVJkfmikGgT-50" value="?" style="ellipse;whiteSpace=wrap;html=1;aspect=fixed;" vertex="1" parent="1">
          <mxGeometry x="230" y="1340" width="60" height="60" as="geometry" />
        </mxCell>
        <mxCell id="eOCsp5Y1OMVJkfmikGgT-51" value="id" style="ellipse;whiteSpace=wrap;html=1;aspect=fixed;" vertex="1" parent="1">
          <mxGeometry x="410" y="1340" width="60" height="60" as="geometry" />
        </mxCell>
        <mxCell id="eOCsp5Y1OMVJkfmikGgT-54" value=":" style="ellipse;whiteSpace=wrap;html=1;aspect=fixed;" vertex="1" parent="1">
          <mxGeometry x="546.5" y="1420" width="60" height="60" as="geometry" />
        </mxCell>
        <mxCell id="eOCsp5Y1OMVJkfmikGgT-55" value="Int" style="ellipse;whiteSpace=wrap;html=1;aspect=fixed;" vertex="1" parent="1">
          <mxGeometry x="671.5" y="1510" width="60" height="60" as="geometry" />
        </mxCell>
        <mxCell id="eOCsp5Y1OMVJkfmikGgT-88" style="rounded=0;orthogonalLoop=1;jettySize=auto;html=1;entryX=1;entryY=0;entryDx=0;entryDy=0;" edge="1" parent="1" source="eOCsp5Y1OMVJkfmikGgT-56" target="eOCsp5Y1OMVJkfmikGgT-55">
          <mxGeometry relative="1" as="geometry" />
        </mxCell>
        <mxCell id="eOCsp5Y1OMVJkfmikGgT-89" style="rounded=0;orthogonalLoop=1;jettySize=auto;html=1;entryX=0;entryY=0;entryDx=0;entryDy=0;strokeColor=default;" edge="1" parent="1" source="eOCsp5Y1OMVJkfmikGgT-56" target="eOCsp5Y1OMVJkfmikGgT-58">
          <mxGeometry relative="1" as="geometry" />
        </mxCell>
        <mxCell id="eOCsp5Y1OMVJkfmikGgT-56" value="|" style="ellipse;whiteSpace=wrap;html=1;aspect=fixed;" vertex="1" parent="1">
          <mxGeometry x="730" y="1420" width="60" height="60" as="geometry" />
        </mxCell>
        <mxCell id="eOCsp5Y1OMVJkfmikGgT-58" value="str" style="ellipse;whiteSpace=wrap;html=1;aspect=fixed;" vertex="1" parent="1">
          <mxGeometry x="803" y="1510" width="60" height="60" as="geometry" />
        </mxCell>
        <mxCell id="eOCsp5Y1OMVJkfmikGgT-92" style="rounded=0;orthogonalLoop=1;jettySize=auto;html=1;exitX=0;exitY=1;exitDx=0;exitDy=0;entryX=1;entryY=0;entryDx=0;entryDy=0;" edge="1" parent="1" source="eOCsp5Y1OMVJkfmikGgT-60" target="eOCsp5Y1OMVJkfmikGgT-76">
          <mxGeometry relative="1" as="geometry" />
        </mxCell>
        <mxCell id="eOCsp5Y1OMVJkfmikGgT-60" value="?" style="ellipse;whiteSpace=wrap;html=1;aspect=fixed;" vertex="1" parent="1">
          <mxGeometry x="691.5" y="1280" width="60" height="60" as="geometry" />
        </mxCell>
        <mxCell id="eOCsp5Y1OMVJkfmikGgT-61" value="=" style="ellipse;whiteSpace=wrap;html=1;aspect=fixed;" vertex="1" parent="1">
          <mxGeometry x="660" y="1140" width="60" height="60" as="geometry" />
        </mxCell>
        <mxCell id="eOCsp5Y1OMVJkfmikGgT-98" style="rounded=0;orthogonalLoop=1;jettySize=auto;html=1;exitX=0;exitY=1;exitDx=0;exitDy=0;entryX=1;entryY=0;entryDx=0;entryDy=0;" edge="1" parent="1" source="eOCsp5Y1OMVJkfmikGgT-62" target="eOCsp5Y1OMVJkfmikGgT-77">
          <mxGeometry relative="1" as="geometry" />
        </mxCell>
        <mxCell id="eOCsp5Y1OMVJkfmikGgT-62" value="*" style="ellipse;whiteSpace=wrap;html=1;aspect=fixed;" vertex="1" parent="1">
          <mxGeometry x="820" y="990" width="60" height="60" as="geometry" />
        </mxCell>
        <mxCell id="eOCsp5Y1OMVJkfmikGgT-122" style="rounded=0;orthogonalLoop=1;jettySize=auto;html=1;exitX=0;exitY=1;exitDx=0;exitDy=0;entryX=1;entryY=0;entryDx=0;entryDy=0;" edge="1" parent="1" source="eOCsp5Y1OMVJkfmikGgT-63" target="eOCsp5Y1OMVJkfmikGgT-79">
          <mxGeometry relative="1" as="geometry" />
        </mxCell>
        <mxCell id="eOCsp5Y1OMVJkfmikGgT-123" style="rounded=0;orthogonalLoop=1;jettySize=auto;html=1;exitX=1;exitY=1;exitDx=0;exitDy=0;entryX=0;entryY=0;entryDx=0;entryDy=0;" edge="1" parent="1" source="eOCsp5Y1OMVJkfmikGgT-63" target="eOCsp5Y1OMVJkfmikGgT-80">
          <mxGeometry relative="1" as="geometry" />
        </mxCell>
        <mxCell id="eOCsp5Y1OMVJkfmikGgT-63" value="|" style="ellipse;whiteSpace=wrap;html=1;aspect=fixed;" vertex="1" parent="1">
          <mxGeometry x="923" y="780" width="60" height="60" as="geometry" />
        </mxCell>
        <mxCell id="eOCsp5Y1OMVJkfmikGgT-64" value="val" style="ellipse;whiteSpace=wrap;html=1;aspect=fixed;" vertex="1" parent="1">
          <mxGeometry x="882.5" y="1250" width="60" height="60" as="geometry" />
        </mxCell>
        <mxCell id="eOCsp5Y1OMVJkfmikGgT-65" value="=" style="ellipse;whiteSpace=wrap;html=1;aspect=fixed;" vertex="1" parent="1">
          <mxGeometry x="1211" y="1175" width="60" height="60" as="geometry" />
        </mxCell>
        <mxCell id="eOCsp5Y1OMVJkfmikGgT-66" value="id" style="ellipse;whiteSpace=wrap;html=1;aspect=fixed;" vertex="1" parent="1">
          <mxGeometry x="1064.5" y="1250" width="60" height="60" as="geometry" />
        </mxCell>
        <mxCell id="eOCsp5Y1OMVJkfmikGgT-69" value="#" style="ellipse;whiteSpace=wrap;html=1;aspect=fixed;" vertex="1" parent="1">
          <mxGeometry x="1124.5" y="785" width="60" height="60" as="geometry" />
        </mxCell>
        <mxCell id="eOCsp5Y1OMVJkfmikGgT-94" style="rounded=0;orthogonalLoop=1;jettySize=auto;html=1;exitX=0;exitY=1;exitDx=0;exitDy=0;entryX=1;entryY=0;entryDx=0;entryDy=0;" edge="1" parent="1" source="eOCsp5Y1OMVJkfmikGgT-70" target="eOCsp5Y1OMVJkfmikGgT-71">
          <mxGeometry relative="1" as="geometry" />
        </mxCell>
        <mxCell id="eOCsp5Y1OMVJkfmikGgT-95" style="rounded=0;orthogonalLoop=1;jettySize=auto;html=1;exitX=1;exitY=1;exitDx=0;exitDy=0;entryX=0;entryY=0;entryDx=0;entryDy=0;" edge="1" parent="1" source="eOCsp5Y1OMVJkfmikGgT-70" target="eOCsp5Y1OMVJkfmikGgT-60">
          <mxGeometry relative="1" as="geometry" />
        </mxCell>
        <mxCell id="eOCsp5Y1OMVJkfmikGgT-70" value="." style="ellipse;whiteSpace=wrap;html=1;aspect=fixed;" vertex="1" parent="1">
          <mxGeometry x="497" y="1180" width="60" height="60" as="geometry" />
        </mxCell>
        <mxCell id="eOCsp5Y1OMVJkfmikGgT-86" style="rounded=0;orthogonalLoop=1;jettySize=auto;html=1;entryX=1;entryY=0;entryDx=0;entryDy=0;" edge="1" parent="1" source="eOCsp5Y1OMVJkfmikGgT-71" target="eOCsp5Y1OMVJkfmikGgT-50">
          <mxGeometry relative="1" as="geometry" />
        </mxCell>
        <mxCell id="eOCsp5Y1OMVJkfmikGgT-87" style="rounded=0;orthogonalLoop=1;jettySize=auto;html=1;exitX=1;exitY=1;exitDx=0;exitDy=0;entryX=0;entryY=0;entryDx=0;entryDy=0;" edge="1" parent="1" source="eOCsp5Y1OMVJkfmikGgT-71" target="eOCsp5Y1OMVJkfmikGgT-51">
          <mxGeometry relative="1" as="geometry" />
        </mxCell>
        <mxCell id="eOCsp5Y1OMVJkfmikGgT-71" value="." style="ellipse;whiteSpace=wrap;html=1;aspect=fixed;" vertex="1" parent="1">
          <mxGeometry x="330" y="1250" width="60" height="60" as="geometry" />
        </mxCell>
        <mxCell id="eOCsp5Y1OMVJkfmikGgT-113" style="rounded=0;orthogonalLoop=1;jettySize=auto;html=1;exitX=0;exitY=1;exitDx=0;exitDy=0;entryX=1;entryY=0;entryDx=0;entryDy=0;" edge="1" parent="1" source="eOCsp5Y1OMVJkfmikGgT-73" target="eOCsp5Y1OMVJkfmikGgT-64">
          <mxGeometry relative="1" as="geometry" />
        </mxCell>
        <mxCell id="eOCsp5Y1OMVJkfmikGgT-114" style="rounded=0;orthogonalLoop=1;jettySize=auto;html=1;exitX=1;exitY=1;exitDx=0;exitDy=0;entryX=0;entryY=0;entryDx=0;entryDy=0;" edge="1" parent="1" source="eOCsp5Y1OMVJkfmikGgT-73" target="eOCsp5Y1OMVJkfmikGgT-66">
          <mxGeometry relative="1" as="geometry" />
        </mxCell>
        <mxCell id="eOCsp5Y1OMVJkfmikGgT-73" value="." style="ellipse;whiteSpace=wrap;html=1;aspect=fixed;" vertex="1" parent="1">
          <mxGeometry x="963" y="1180" width="60" height="60" as="geometry" />
        </mxCell>
        <mxCell id="eOCsp5Y1OMVJkfmikGgT-117" style="rounded=0;orthogonalLoop=1;jettySize=auto;html=1;exitX=1;exitY=1;exitDx=0;exitDy=0;entryX=0;entryY=0;entryDx=0;entryDy=0;" edge="1" parent="1" source="eOCsp5Y1OMVJkfmikGgT-74" target="eOCsp5Y1OMVJkfmikGgT-65">
          <mxGeometry relative="1" as="geometry" />
        </mxCell>
        <mxCell id="eOCsp5Y1OMVJkfmikGgT-118" style="rounded=0;orthogonalLoop=1;jettySize=auto;html=1;exitX=0;exitY=1;exitDx=0;exitDy=0;entryX=1;entryY=0;entryDx=0;entryDy=0;" edge="1" parent="1" source="eOCsp5Y1OMVJkfmikGgT-74" target="eOCsp5Y1OMVJkfmikGgT-73">
          <mxGeometry relative="1" as="geometry" />
        </mxCell>
        <mxCell id="eOCsp5Y1OMVJkfmikGgT-74" value="." style="ellipse;whiteSpace=wrap;html=1;aspect=fixed;" vertex="1" parent="1">
          <mxGeometry x="1076" y="1040" width="60" height="60" as="geometry" />
        </mxCell>
        <mxCell id="eOCsp5Y1OMVJkfmikGgT-124" style="rounded=0;orthogonalLoop=1;jettySize=auto;html=1;exitX=0;exitY=1;exitDx=0;exitDy=0;entryX=1;entryY=0;entryDx=0;entryDy=0;" edge="1" parent="1" source="eOCsp5Y1OMVJkfmikGgT-75" target="eOCsp5Y1OMVJkfmikGgT-63">
          <mxGeometry relative="1" as="geometry" />
        </mxCell>
        <mxCell id="eOCsp5Y1OMVJkfmikGgT-125" style="rounded=0;orthogonalLoop=1;jettySize=auto;html=1;exitX=1;exitY=1;exitDx=0;exitDy=0;entryX=0;entryY=0;entryDx=0;entryDy=0;" edge="1" parent="1" source="eOCsp5Y1OMVJkfmikGgT-75" target="eOCsp5Y1OMVJkfmikGgT-69">
          <mxGeometry relative="1" as="geometry" />
        </mxCell>
        <mxCell id="eOCsp5Y1OMVJkfmikGgT-75" value="." style="ellipse;whiteSpace=wrap;html=1;aspect=fixed;" vertex="1" parent="1">
          <mxGeometry x="1023" y="650" width="60" height="60" as="geometry" />
        </mxCell>
        <mxCell id="eOCsp5Y1OMVJkfmikGgT-91" style="rounded=0;orthogonalLoop=1;jettySize=auto;html=1;exitX=1;exitY=1;exitDx=0;exitDy=0;entryX=0;entryY=0;entryDx=0;entryDy=0;" edge="1" parent="1" source="eOCsp5Y1OMVJkfmikGgT-76" target="eOCsp5Y1OMVJkfmikGgT-56">
          <mxGeometry relative="1" as="geometry" />
        </mxCell>
        <mxCell id="eOCsp5Y1OMVJkfmikGgT-76" value="." style="ellipse;whiteSpace=wrap;html=1;aspect=fixed;" vertex="1" parent="1">
          <mxGeometry x="631.5" y="1350" width="60" height="60" as="geometry" />
        </mxCell>
        <mxCell id="eOCsp5Y1OMVJkfmikGgT-77" value="data" style="ellipse;whiteSpace=wrap;html=1;aspect=fixed;" vertex="1" parent="1">
          <mxGeometry x="767" y="1050" width="60" height="60" as="geometry" />
        </mxCell>
        <mxCell id="eOCsp5Y1OMVJkfmikGgT-96" style="rounded=0;orthogonalLoop=1;jettySize=auto;html=1;exitX=1;exitY=1;exitDx=0;exitDy=0;entryX=0;entryY=0;entryDx=0;entryDy=0;" edge="1" parent="1" source="eOCsp5Y1OMVJkfmikGgT-78" target="eOCsp5Y1OMVJkfmikGgT-61">
          <mxGeometry relative="1" as="geometry" />
        </mxCell>
        <mxCell id="eOCsp5Y1OMVJkfmikGgT-97" style="rounded=0;orthogonalLoop=1;jettySize=auto;html=1;exitX=0;exitY=1;exitDx=0;exitDy=0;entryX=1;entryY=0;entryDx=0;entryDy=0;" edge="1" parent="1" source="eOCsp5Y1OMVJkfmikGgT-78" target="eOCsp5Y1OMVJkfmikGgT-70">
          <mxGeometry relative="1" as="geometry" />
        </mxCell>
        <mxCell id="eOCsp5Y1OMVJkfmikGgT-78" value="." style="ellipse;whiteSpace=wrap;html=1;aspect=fixed;" vertex="1" parent="1">
          <mxGeometry x="571.5" y="1030" width="60" height="60" as="geometry" />
        </mxCell>
        <mxCell id="eOCsp5Y1OMVJkfmikGgT-99" style="rounded=0;orthogonalLoop=1;jettySize=auto;html=1;exitX=1;exitY=1;exitDx=0;exitDy=0;entryX=0;entryY=0;entryDx=0;entryDy=0;" edge="1" parent="1" source="eOCsp5Y1OMVJkfmikGgT-79" target="eOCsp5Y1OMVJkfmikGgT-62">
          <mxGeometry relative="1" as="geometry" />
        </mxCell>
        <mxCell id="eOCsp5Y1OMVJkfmikGgT-100" style="rounded=0;orthogonalLoop=1;jettySize=auto;html=1;exitX=0;exitY=1;exitDx=0;exitDy=0;entryX=1;entryY=0;entryDx=0;entryDy=0;" edge="1" parent="1" source="eOCsp5Y1OMVJkfmikGgT-79" target="eOCsp5Y1OMVJkfmikGgT-78">
          <mxGeometry relative="1" as="geometry" />
        </mxCell>
        <mxCell id="eOCsp5Y1OMVJkfmikGgT-79" value="." style="ellipse;whiteSpace=wrap;html=1;aspect=fixed;" vertex="1" parent="1">
          <mxGeometry x="650" y="920" width="60" height="60" as="geometry" />
        </mxCell>
        <mxCell id="eOCsp5Y1OMVJkfmikGgT-120" style="rounded=0;orthogonalLoop=1;jettySize=auto;html=1;exitX=0;exitY=1;exitDx=0;exitDy=0;entryX=1;entryY=0;entryDx=0;entryDy=0;" edge="1" parent="1" source="eOCsp5Y1OMVJkfmikGgT-80" target="eOCsp5Y1OMVJkfmikGgT-74">
          <mxGeometry relative="1" as="geometry" />
        </mxCell>
        <mxCell id="eOCsp5Y1OMVJkfmikGgT-121" style="rounded=0;orthogonalLoop=1;jettySize=auto;html=1;exitX=1;exitY=1;exitDx=0;exitDy=0;entryX=0;entryY=0;entryDx=0;entryDy=0;" edge="1" parent="1" source="eOCsp5Y1OMVJkfmikGgT-80" target="eOCsp5Y1OMVJkfmikGgT-81">
          <mxGeometry relative="1" as="geometry" />
        </mxCell>
        <mxCell id="eOCsp5Y1OMVJkfmikGgT-80" value="." style="ellipse;whiteSpace=wrap;html=1;aspect=fixed;" vertex="1" parent="1">
          <mxGeometry x="1212.5" y="940" width="60" height="60" as="geometry" />
        </mxCell>
        <mxCell id="eOCsp5Y1OMVJkfmikGgT-81" value="data" style="ellipse;whiteSpace=wrap;html=1;aspect=fixed;" vertex="1" parent="1">
          <mxGeometry x="1341" y="1030" width="60" height="60" as="geometry" />
        </mxCell>
        <mxCell id="eOCsp5Y1OMVJkfmikGgT-90" style="rounded=0;orthogonalLoop=1;jettySize=auto;html=1;exitX=0;exitY=1;exitDx=0;exitDy=0;entryX=0.9;entryY=0.267;entryDx=0;entryDy=0;entryPerimeter=0;" edge="1" parent="1" source="eOCsp5Y1OMVJkfmikGgT-76" target="eOCsp5Y1OMVJkfmikGgT-54">
          <mxGeometry relative="1" as="geometry" />
        </mxCell>
        <mxCell id="eOCsp5Y1OMVJkfmikGgT-126" value="&lt;b&gt;1&lt;/b&gt;" style="rounded=0;whiteSpace=wrap;html=1;" vertex="1" parent="1">
          <mxGeometry x="65" y="1580" width="70" height="30" as="geometry" />
        </mxCell>
        <mxCell id="eOCsp5Y1OMVJkfmikGgT-128" value="&lt;b&gt;2&lt;/b&gt;" style="rounded=0;whiteSpace=wrap;html=1;" vertex="1" parent="1">
          <mxGeometry x="210" y="1580" width="70" height="30" as="geometry" />
        </mxCell>
        <mxCell id="eOCsp5Y1OMVJkfmikGgT-129" value="7" style="rounded=0;whiteSpace=wrap;html=1;" vertex="1" parent="1">
          <mxGeometry x="660" y="1210" width="70" height="30" as="geometry" />
        </mxCell>
        <mxCell id="eOCsp5Y1OMVJkfmikGgT-130" value="&lt;b&gt;3&lt;/b&gt;" style="rounded=0;whiteSpace=wrap;html=1;" vertex="1" parent="1">
          <mxGeometry x="410" y="1410" width="70" height="30" as="geometry" />
        </mxCell>
        <mxCell id="eOCsp5Y1OMVJkfmikGgT-131" value="&lt;b&gt;4&lt;/b&gt;" style="rounded=0;whiteSpace=wrap;html=1;" vertex="1" parent="1">
          <mxGeometry x="536.5" y="1490" width="70" height="30" as="geometry" />
        </mxCell>
        <mxCell id="eOCsp5Y1OMVJkfmikGgT-132" value="5" style="rounded=0;whiteSpace=wrap;html=1;" vertex="1" parent="1">
          <mxGeometry x="661.5" y="1580" width="70" height="30" as="geometry" />
        </mxCell>
        <mxCell id="eOCsp5Y1OMVJkfmikGgT-133" value="&lt;b&gt;6&lt;/b&gt;" style="rounded=0;whiteSpace=wrap;html=1;" vertex="1" parent="1">
          <mxGeometry x="798" y="1580" width="70" height="30" as="geometry" />
        </mxCell>
        <mxCell id="eOCsp5Y1OMVJkfmikGgT-135" value="12" style="rounded=0;whiteSpace=wrap;html=1;" vertex="1" parent="1">
          <mxGeometry x="1350" y="1120" width="70" height="30" as="geometry" />
        </mxCell>
        <mxCell id="eOCsp5Y1OMVJkfmikGgT-136" value="8" style="rounded=0;whiteSpace=wrap;html=1;" vertex="1" parent="1">
          <mxGeometry x="762" y="1130" width="70" height="30" as="geometry" />
        </mxCell>
        <mxCell id="eOCsp5Y1OMVJkfmikGgT-137" value="9" style="rounded=0;whiteSpace=wrap;html=1;" vertex="1" parent="1">
          <mxGeometry x="880" y="1330" width="70" height="30" as="geometry" />
        </mxCell>
        <mxCell id="eOCsp5Y1OMVJkfmikGgT-138" value="10" style="rounded=0;whiteSpace=wrap;html=1;" vertex="1" parent="1">
          <mxGeometry x="1054.5" y="1310" width="70" height="30" as="geometry" />
        </mxCell>
        <mxCell id="eOCsp5Y1OMVJkfmikGgT-139" value="11" style="rounded=0;whiteSpace=wrap;html=1;" vertex="1" parent="1">
          <mxGeometry x="1206" y="1240" width="70" height="30" as="geometry" />
        </mxCell>
        <mxCell id="eOCsp5Y1OMVJkfmikGgT-140" value="13" style="rounded=0;whiteSpace=wrap;html=1;" vertex="1" parent="1">
          <mxGeometry x="1119.5" y="850" width="70" height="30" as="geometry" />
        </mxCell>
        <mxCell id="eOCsp5Y1OMVJkfmikGgT-141" value="&lt;b&gt;1,2&lt;/b&gt;" style="rounded=0;whiteSpace=wrap;html=1;dashed=1;strokeWidth=0;strokeColor=none;fillColor=none;" vertex="1" parent="1">
          <mxGeometry x="80" y="1430" width="70" height="30" as="geometry" />
        </mxCell>
        <mxCell id="eOCsp5Y1OMVJkfmikGgT-142" value="&lt;b&gt;1,2&lt;/b&gt;" style="rounded=0;whiteSpace=wrap;html=1;dashed=1;strokeWidth=0;strokeColor=none;fillColor=none;" vertex="1" parent="1">
          <mxGeometry x="210" y="1435" width="70" height="30" as="geometry" />
        </mxCell>
        <mxCell id="eOCsp5Y1OMVJkfmikGgT-143" value="&lt;b&gt;1,2&lt;/b&gt;" style="rounded=0;whiteSpace=wrap;html=1;dashed=1;strokeWidth=0;strokeColor=none;fillColor=none;" vertex="1" parent="1">
          <mxGeometry x="160" y="1350" width="70" height="30" as="geometry" />
        </mxCell>
        <mxCell id="eOCsp5Y1OMVJkfmikGgT-144" value="&lt;b&gt;1,2&lt;/b&gt;" style="rounded=0;whiteSpace=wrap;html=1;dashed=1;strokeWidth=0;strokeColor=none;fillColor=none;" vertex="1" parent="1">
          <mxGeometry x="284" y="1355" width="70" height="30" as="geometry" />
        </mxCell>
        <mxCell id="eOCsp5Y1OMVJkfmikGgT-145" value="&lt;font color=&quot;#ff6026&quot;&gt;N&lt;/font&gt;" style="rounded=0;whiteSpace=wrap;html=1;dashed=1;strokeWidth=0;strokeColor=none;fillColor=none;" vertex="1" parent="1">
          <mxGeometry x="225" y="1400" width="70" height="30" as="geometry" />
        </mxCell>
        <mxCell id="eOCsp5Y1OMVJkfmikGgT-146" value="1,2,3" style="rounded=0;whiteSpace=wrap;html=1;dashed=1;strokeWidth=0;strokeColor=none;fillColor=none;" vertex="1" parent="1">
          <mxGeometry x="250" y="1260" width="70" height="30" as="geometry" />
        </mxCell>
        <mxCell id="eOCsp5Y1OMVJkfmikGgT-147" value="3" style="rounded=0;whiteSpace=wrap;html=1;dashed=1;strokeWidth=0;strokeColor=none;fillColor=none;" vertex="1" parent="1">
          <mxGeometry x="379" y="1265" width="70" height="30" as="geometry" />
        </mxCell>
        <mxCell id="eOCsp5Y1OMVJkfmikGgT-148" value="4" style="rounded=0;whiteSpace=wrap;html=1;dashed=1;strokeWidth=0;strokeColor=none;fillColor=none;" vertex="1" parent="1">
          <mxGeometry x="560" y="1360" width="70" height="30" as="geometry" />
        </mxCell>
        <mxCell id="eOCsp5Y1OMVJkfmikGgT-149" value="5,6" style="rounded=0;whiteSpace=wrap;html=1;dashed=1;strokeWidth=0;strokeColor=none;fillColor=none;" vertex="1" parent="1">
          <mxGeometry x="790" y="1440" width="70" height="30" as="geometry" />
        </mxCell>
        <mxCell id="eOCsp5Y1OMVJkfmikGgT-150" value="5,6" style="rounded=0;whiteSpace=wrap;html=1;dashed=1;strokeWidth=0;strokeColor=none;fillColor=none;" vertex="1" parent="1">
          <mxGeometry x="692" y="1370" width="70" height="30" as="geometry" />
        </mxCell>
        <mxCell id="eOCsp5Y1OMVJkfmikGgT-151" value="5,6" style="rounded=0;whiteSpace=wrap;html=1;dashed=1;strokeWidth=0;strokeColor=none;fillColor=none;" vertex="1" parent="1">
          <mxGeometry x="670" y="1435" width="70" height="30" as="geometry" />
        </mxCell>
        <mxCell id="eOCsp5Y1OMVJkfmikGgT-152" value="&lt;font color=&quot;#ff6026&quot;&gt;N&lt;/font&gt;" style="rounded=0;whiteSpace=wrap;html=1;dashed=1;strokeWidth=0;strokeColor=none;fillColor=none;" vertex="1" parent="1">
          <mxGeometry x="691.5" y="1340" width="70" height="30" as="geometry" />
        </mxCell>
        <mxCell id="eOCsp5Y1OMVJkfmikGgT-153" value="4" style="rounded=0;whiteSpace=wrap;html=1;dashed=1;strokeWidth=0;strokeColor=none;fillColor=none;" vertex="1" parent="1">
          <mxGeometry x="630" y="1295" width="70" height="30" as="geometry" />
        </mxCell>
        <mxCell id="eOCsp5Y1OMVJkfmikGgT-154" value="5,6" style="rounded=0;whiteSpace=wrap;html=1;dashed=1;strokeWidth=0;strokeColor=none;fillColor=none;" vertex="1" parent="1">
          <mxGeometry x="746" y="1295" width="70" height="30" as="geometry" />
        </mxCell>
        <mxCell id="eOCsp5Y1OMVJkfmikGgT-155" value="1,2,3" style="rounded=0;whiteSpace=wrap;html=1;dashed=1;strokeWidth=0;strokeColor=none;fillColor=none;" vertex="1" parent="1">
          <mxGeometry x="420" y="1190" width="70" height="30" as="geometry" />
        </mxCell>
        <mxCell id="eOCsp5Y1OMVJkfmikGgT-156" value="3,5,6" style="rounded=0;whiteSpace=wrap;html=1;dashed=1;strokeWidth=0;strokeColor=none;fillColor=none;" vertex="1" parent="1">
          <mxGeometry x="550" y="1200" width="70" height="30" as="geometry" />
        </mxCell>
        <mxCell id="eOCsp5Y1OMVJkfmikGgT-157" value="1,2,3" style="rounded=0;whiteSpace=wrap;html=1;dashed=1;strokeWidth=0;strokeColor=none;fillColor=none;" vertex="1" parent="1">
          <mxGeometry x="497" y="1040" width="70" height="30" as="geometry" />
        </mxCell>
        <mxCell id="eOCsp5Y1OMVJkfmikGgT-158" value="7" style="rounded=0;whiteSpace=wrap;html=1;dashed=1;strokeWidth=0;strokeColor=none;fillColor=none;" vertex="1" parent="1">
          <mxGeometry x="626.5" y="1050" width="70" height="30" as="geometry" />
        </mxCell>
        <mxCell id="eOCsp5Y1OMVJkfmikGgT-159" value="8" style="rounded=0;whiteSpace=wrap;html=1;dashed=1;strokeWidth=0;strokeColor=none;fillColor=none;" vertex="1" parent="1">
          <mxGeometry x="757" y="1010" width="70" height="30" as="geometry" />
        </mxCell>
        <mxCell id="eOCsp5Y1OMVJkfmikGgT-160" value="8" style="rounded=0;whiteSpace=wrap;html=1;dashed=1;strokeWidth=0;strokeColor=none;fillColor=none;" vertex="1" parent="1">
          <mxGeometry x="860" y="1010" width="70" height="30" as="geometry" />
        </mxCell>
        <mxCell id="eOCsp5Y1OMVJkfmikGgT-162" value="&lt;font color=&quot;#ff6026&quot;&gt;N&lt;/font&gt;" style="rounded=0;whiteSpace=wrap;html=1;dashed=1;strokeWidth=0;strokeColor=none;fillColor=none;" vertex="1" parent="1">
          <mxGeometry x="820" y="1050" width="70" height="30" as="geometry" />
        </mxCell>
        <mxCell id="eOCsp5Y1OMVJkfmikGgT-163" value="1,2,3" style="rounded=0;whiteSpace=wrap;html=1;dashed=1;strokeWidth=0;strokeColor=none;fillColor=none;" vertex="1" parent="1">
          <mxGeometry x="571.5" y="935" width="70" height="30" as="geometry" />
        </mxCell>
        <mxCell id="eOCsp5Y1OMVJkfmikGgT-164" value="7,8" style="rounded=0;whiteSpace=wrap;html=1;dashed=1;strokeWidth=0;strokeColor=none;fillColor=none;" vertex="1" parent="1">
          <mxGeometry x="700" y="940" width="70" height="30" as="geometry" />
        </mxCell>
        <mxCell id="eOCsp5Y1OMVJkfmikGgT-166" value="9" style="rounded=0;whiteSpace=wrap;html=1;dashed=1;strokeWidth=0;strokeColor=none;fillColor=none;" vertex="1" parent="1">
          <mxGeometry x="910" y="1190" width="70" height="30" as="geometry" />
        </mxCell>
        <mxCell id="eOCsp5Y1OMVJkfmikGgT-167" value="10" style="rounded=0;whiteSpace=wrap;html=1;dashed=1;strokeWidth=0;strokeColor=none;fillColor=none;" vertex="1" parent="1">
          <mxGeometry x="1006" y="1200" width="70" height="30" as="geometry" />
        </mxCell>
        <mxCell id="eOCsp5Y1OMVJkfmikGgT-168" value="9" style="rounded=0;whiteSpace=wrap;html=1;dashed=1;strokeWidth=0;strokeColor=none;fillColor=none;" vertex="1" parent="1">
          <mxGeometry x="1010" y="1055" width="70" height="30" as="geometry" />
        </mxCell>
        <mxCell id="eOCsp5Y1OMVJkfmikGgT-169" value="11" style="rounded=0;whiteSpace=wrap;html=1;dashed=1;strokeWidth=0;strokeColor=none;fillColor=none;" vertex="1" parent="1">
          <mxGeometry x="1124.5" y="1060" width="70" height="30" as="geometry" />
        </mxCell>
        <mxCell id="eOCsp5Y1OMVJkfmikGgT-170" value="9" style="rounded=0;whiteSpace=wrap;html=1;dashed=1;strokeWidth=0;strokeColor=none;fillColor=none;" vertex="1" parent="1">
          <mxGeometry x="1141" y="955" width="70" height="30" as="geometry" />
        </mxCell>
        <mxCell id="eOCsp5Y1OMVJkfmikGgT-171" value="12" style="rounded=0;whiteSpace=wrap;html=1;dashed=1;strokeWidth=0;strokeColor=none;fillColor=none;" vertex="1" parent="1">
          <mxGeometry x="1260" y="955" width="70" height="30" as="geometry" />
        </mxCell>
        <mxCell id="eOCsp5Y1OMVJkfmikGgT-172" value="1,2,3,9" style="rounded=0;whiteSpace=wrap;html=1;dashed=1;strokeWidth=0;strokeColor=none;fillColor=none;" vertex="1" parent="1">
          <mxGeometry x="850" y="795" width="70" height="30" as="geometry" />
        </mxCell>
        <mxCell id="eOCsp5Y1OMVJkfmikGgT-173" value="7,8,12" style="rounded=0;whiteSpace=wrap;html=1;dashed=1;strokeWidth=0;strokeColor=none;fillColor=none;" vertex="1" parent="1">
          <mxGeometry x="994.5" y="800" width="70" height="30" as="geometry" />
        </mxCell>
        <mxCell id="eOCsp5Y1OMVJkfmikGgT-174" value="1,2,3,9" style="rounded=0;whiteSpace=wrap;html=1;dashed=1;strokeWidth=0;strokeColor=none;fillColor=none;" vertex="1" parent="1">
          <mxGeometry x="953" y="665" width="70" height="30" as="geometry" />
        </mxCell>
        <mxCell id="eOCsp5Y1OMVJkfmikGgT-175" value="13" style="rounded=0;whiteSpace=wrap;html=1;dashed=1;strokeWidth=0;strokeColor=none;fillColor=none;" vertex="1" parent="1">
          <mxGeometry x="1090" y="665" width="70" height="30" as="geometry" />
        </mxCell>
        <mxCell id="eOCsp5Y1OMVJkfmikGgT-189" style="edgeStyle=orthogonalEdgeStyle;rounded=0;orthogonalLoop=1;jettySize=auto;html=1;exitX=1;exitY=0;exitDx=0;exitDy=0;entryX=0.5;entryY=0;entryDx=0;entryDy=0;curved=1;strokeColor=#ff0088;" edge="1" parent="1" source="eOCsp5Y1OMVJkfmikGgT-176" target="eOCsp5Y1OMVJkfmikGgT-179">
          <mxGeometry relative="1" as="geometry">
            <Array as="points">
              <mxPoint x="490" y="1780" />
              <mxPoint x="798" y="1780" />
            </Array>
          </mxGeometry>
        </mxCell>
        <mxCell id="eOCsp5Y1OMVJkfmikGgT-176" value="S1" style="ellipse;whiteSpace=wrap;html=1;aspect=fixed;strokeColor=#ff0088;" vertex="1" parent="1">
          <mxGeometry x="421.5" y="1870" width="80" height="80" as="geometry" />
        </mxCell>
        <mxCell id="eOCsp5Y1OMVJkfmikGgT-218" style="edgeStyle=orthogonalEdgeStyle;rounded=0;orthogonalLoop=1;jettySize=auto;html=1;exitX=0;exitY=0.5;exitDx=0;exitDy=0;entryX=1;entryY=0.5;entryDx=0;entryDy=0;strokeColor=#0033ff;" edge="1" parent="1" source="eOCsp5Y1OMVJkfmikGgT-177" target="eOCsp5Y1OMVJkfmikGgT-178">
          <mxGeometry relative="1" as="geometry" />
        </mxCell>
        <mxCell id="eOCsp5Y1OMVJkfmikGgT-177" value="S3" style="ellipse;whiteSpace=wrap;html=1;aspect=fixed;strokeColor=#0033ff;" vertex="1" parent="1">
          <mxGeometry x="646.5" y="1870" width="80" height="80" as="geometry" />
        </mxCell>
        <mxCell id="eOCsp5Y1OMVJkfmikGgT-213" style="edgeStyle=orthogonalEdgeStyle;rounded=0;orthogonalLoop=1;jettySize=auto;html=1;exitX=1;exitY=0;exitDx=0;exitDy=0;entryX=0;entryY=0;entryDx=0;entryDy=0;curved=1;strokeColor=#4400ff;" edge="1" parent="1" source="eOCsp5Y1OMVJkfmikGgT-178" target="eOCsp5Y1OMVJkfmikGgT-181">
          <mxGeometry relative="1" as="geometry">
            <Array as="points">
              <mxPoint x="605" y="1770" />
              <mxPoint x="890" y="1770" />
            </Array>
          </mxGeometry>
        </mxCell>
        <mxCell id="eOCsp5Y1OMVJkfmikGgT-216" style="edgeStyle=orthogonalEdgeStyle;rounded=0;orthogonalLoop=1;jettySize=auto;html=1;exitX=0.794;exitY=0.906;exitDx=0;exitDy=0;entryX=0;entryY=1;entryDx=0;entryDy=0;curved=1;exitPerimeter=0;strokeColor=#4400ff;" edge="1" parent="1" source="eOCsp5Y1OMVJkfmikGgT-178" target="eOCsp5Y1OMVJkfmikGgT-183">
          <mxGeometry relative="1" as="geometry">
            <Array as="points">
              <mxPoint x="600" y="2110" />
              <mxPoint x="1214" y="2110" />
            </Array>
          </mxGeometry>
        </mxCell>
        <mxCell id="eOCsp5Y1OMVJkfmikGgT-178" value="S2" style="ellipse;whiteSpace=wrap;html=1;aspect=fixed;strokeColor=#4400ff;" vertex="1" parent="1">
          <mxGeometry x="536.5" y="1870" width="80" height="80" as="geometry" />
        </mxCell>
        <mxCell id="eOCsp5Y1OMVJkfmikGgT-220" style="edgeStyle=orthogonalEdgeStyle;rounded=0;orthogonalLoop=1;jettySize=auto;html=1;exitX=1;exitY=0.5;exitDx=0;exitDy=0;entryX=0;entryY=0.5;entryDx=0;entryDy=0;strokeColor=#003700;" edge="1" parent="1" source="eOCsp5Y1OMVJkfmikGgT-179" target="eOCsp5Y1OMVJkfmikGgT-181">
          <mxGeometry relative="1" as="geometry" />
        </mxCell>
        <mxCell id="eOCsp5Y1OMVJkfmikGgT-222" style="edgeStyle=orthogonalEdgeStyle;rounded=0;orthogonalLoop=1;jettySize=auto;html=1;exitX=0.5;exitY=1;exitDx=0;exitDy=0;entryX=0.5;entryY=1;entryDx=0;entryDy=0;curved=1;strokeColor=#003700;" edge="1" parent="1" source="eOCsp5Y1OMVJkfmikGgT-179" target="eOCsp5Y1OMVJkfmikGgT-180">
          <mxGeometry relative="1" as="geometry" />
        </mxCell>
        <mxCell id="eOCsp5Y1OMVJkfmikGgT-179" value="S4" style="ellipse;whiteSpace=wrap;html=1;aspect=fixed;strokeColor=#003700;" vertex="1" parent="1">
          <mxGeometry x="758" y="1870" width="80" height="80" as="geometry" />
        </mxCell>
        <mxCell id="eOCsp5Y1OMVJkfmikGgT-180" value="S6" style="ellipse;whiteSpace=wrap;html=1;aspect=fixed;strokeColor=#d4ff00;" vertex="1" parent="1">
          <mxGeometry x="994.5" y="1870" width="80" height="80" as="geometry" />
        </mxCell>
        <mxCell id="eOCsp5Y1OMVJkfmikGgT-224" style="edgeStyle=orthogonalEdgeStyle;rounded=0;orthogonalLoop=1;jettySize=auto;html=1;exitX=1;exitY=0;exitDx=0;exitDy=0;entryX=0;entryY=0;entryDx=0;entryDy=0;curved=1;strokeColor=#00eeff;" edge="1" parent="1" source="eOCsp5Y1OMVJkfmikGgT-181" target="eOCsp5Y1OMVJkfmikGgT-182">
          <mxGeometry relative="1" as="geometry">
            <Array as="points">
              <mxPoint x="946" y="1810" />
              <mxPoint x="1108" y="1810" />
            </Array>
          </mxGeometry>
        </mxCell>
        <mxCell id="eOCsp5Y1OMVJkfmikGgT-181" value="S5" style="ellipse;whiteSpace=wrap;html=1;aspect=fixed;strokeColor=#00eeff;" vertex="1" parent="1">
          <mxGeometry x="878" y="1870" width="80" height="80" as="geometry" />
        </mxCell>
        <mxCell id="eOCsp5Y1OMVJkfmikGgT-196" style="edgeStyle=orthogonalEdgeStyle;rounded=0;orthogonalLoop=1;jettySize=auto;html=1;exitX=0.5;exitY=1;exitDx=0;exitDy=0;entryX=0.5;entryY=1;entryDx=0;entryDy=0;curved=1;strokeColor=#ff7300;" edge="1" parent="1" source="eOCsp5Y1OMVJkfmikGgT-182" target="eOCsp5Y1OMVJkfmikGgT-183">
          <mxGeometry relative="1" as="geometry">
            <Array as="points">
              <mxPoint x="1136" y="2000" />
              <mxPoint x="1245" y="2000" />
            </Array>
          </mxGeometry>
        </mxCell>
        <mxCell id="eOCsp5Y1OMVJkfmikGgT-182" value="S7" style="ellipse;whiteSpace=wrap;html=1;aspect=fixed;strokeColor=#ff7300;" vertex="1" parent="1">
          <mxGeometry x="1096" y="1870" width="80" height="80" as="geometry" />
        </mxCell>
        <mxCell id="eOCsp5Y1OMVJkfmikGgT-183" value="S8" style="ellipse;whiteSpace=wrap;html=1;aspect=fixed;strokeColor=#00ff73;" vertex="1" parent="1">
          <mxGeometry x="1202.5" y="1860" width="80" height="80" as="geometry" />
        </mxCell>
        <mxCell id="eOCsp5Y1OMVJkfmikGgT-186" style="edgeStyle=orthogonalEdgeStyle;rounded=0;orthogonalLoop=1;jettySize=auto;html=1;exitX=1;exitY=0.5;exitDx=0;exitDy=0;entryX=0;entryY=0.5;entryDx=0;entryDy=0;strokeColor=#ff0000;" edge="1" parent="1" source="eOCsp5Y1OMVJkfmikGgT-185" target="eOCsp5Y1OMVJkfmikGgT-176">
          <mxGeometry relative="1" as="geometry" />
        </mxCell>
        <mxCell id="eOCsp5Y1OMVJkfmikGgT-187" style="edgeStyle=orthogonalEdgeStyle;rounded=0;orthogonalLoop=1;jettySize=auto;html=1;exitX=0.5;exitY=1;exitDx=0;exitDy=0;entryX=0.5;entryY=1;entryDx=0;entryDy=0;curved=1;strokeColor=#ff0000;" edge="1" parent="1" source="eOCsp5Y1OMVJkfmikGgT-185" target="eOCsp5Y1OMVJkfmikGgT-178">
          <mxGeometry relative="1" as="geometry" />
        </mxCell>
        <mxCell id="eOCsp5Y1OMVJkfmikGgT-188" style="edgeStyle=orthogonalEdgeStyle;rounded=0;orthogonalLoop=1;jettySize=auto;html=1;exitX=1;exitY=0;exitDx=0;exitDy=0;entryX=0;entryY=0;entryDx=0;entryDy=0;curved=1;strokeColor=#ff0000;" edge="1" parent="1" source="eOCsp5Y1OMVJkfmikGgT-185" target="eOCsp5Y1OMVJkfmikGgT-177">
          <mxGeometry relative="1" as="geometry">
            <Array as="points">
              <mxPoint x="377" y="1820" />
              <mxPoint x="658" y="1820" />
            </Array>
          </mxGeometry>
        </mxCell>
        <mxCell id="eOCsp5Y1OMVJkfmikGgT-185" value="S0" style="ellipse;whiteSpace=wrap;html=1;aspect=fixed;strokeColor=#ff0000;" vertex="1" parent="1">
          <mxGeometry x="309" y="1870" width="80" height="80" as="geometry" />
        </mxCell>
        <mxCell id="eOCsp5Y1OMVJkfmikGgT-195" style="edgeStyle=orthogonalEdgeStyle;rounded=0;orthogonalLoop=1;jettySize=auto;html=1;exitX=1;exitY=0;exitDx=0;exitDy=0;entryX=0;entryY=0;entryDx=0;entryDy=0;curved=1;strokeColor=#d4ff00;" edge="1" parent="1" source="eOCsp5Y1OMVJkfmikGgT-180" target="eOCsp5Y1OMVJkfmikGgT-183">
          <mxGeometry relative="1" as="geometry">
            <Array as="points">
              <mxPoint x="1063" y="1820" />
              <mxPoint x="1214" y="1820" />
            </Array>
          </mxGeometry>
        </mxCell>
        <mxCell id="eOCsp5Y1OMVJkfmikGgT-197" value="&lt;font color=&quot;#007fff&quot;&gt;val&lt;/font&gt;" style="rounded=0;whiteSpace=wrap;html=1;dashed=1;strokeWidth=0;strokeColor=none;fillColor=none;" vertex="1" parent="1">
          <mxGeometry x="370" y="1880" width="70" height="30" as="geometry" />
        </mxCell>
        <mxCell id="eOCsp5Y1OMVJkfmikGgT-198" value="&lt;font color=&quot;#007fff&quot;&gt;id&lt;/font&gt;" style="rounded=0;whiteSpace=wrap;html=1;dashed=1;strokeWidth=0;strokeColor=none;fillColor=none;" vertex="1" parent="1">
          <mxGeometry x="410" y="1970" width="70" height="30" as="geometry" />
        </mxCell>
        <mxCell id="eOCsp5Y1OMVJkfmikGgT-199" value="&lt;font color=&quot;#007fff&quot;&gt;var&lt;/font&gt;" style="rounded=0;whiteSpace=wrap;html=1;dashed=1;strokeWidth=0;strokeColor=none;fillColor=none;" vertex="1" parent="1">
          <mxGeometry x="449" y="1800" width="70" height="30" as="geometry" />
        </mxCell>
        <mxCell id="eOCsp5Y1OMVJkfmikGgT-204" value="&lt;font color=&quot;#007fff&quot;&gt;id&lt;/font&gt;" style="rounded=0;whiteSpace=wrap;html=1;dashed=1;strokeWidth=0;strokeColor=none;fillColor=none;" vertex="1" parent="1">
          <mxGeometry x="621.5" y="1750" width="58.5" height="34" as="geometry" />
        </mxCell>
        <mxCell id="eOCsp5Y1OMVJkfmikGgT-206" value="&lt;font color=&quot;#007fff&quot;&gt;:&lt;/font&gt;" style="rounded=0;whiteSpace=wrap;html=1;dashed=1;strokeWidth=0;strokeColor=none;fillColor=none;" vertex="1" parent="1">
          <mxGeometry x="720" y="1739" width="70" height="30" as="geometry" />
        </mxCell>
        <mxCell id="eOCsp5Y1OMVJkfmikGgT-211" value="&lt;font color=&quot;#007fff&quot;&gt;=&lt;/font&gt;" style="rounded=0;whiteSpace=wrap;html=1;dashed=1;strokeWidth=0;strokeColor=none;fillColor=none;" vertex="1" parent="1">
          <mxGeometry x="1194.5" y="1990" width="70" height="30" as="geometry" />
        </mxCell>
        <mxCell id="eOCsp5Y1OMVJkfmikGgT-217" value="&lt;font color=&quot;#007fff&quot;&gt;=&lt;/font&gt;" style="rounded=0;whiteSpace=wrap;html=1;dashed=1;strokeWidth=0;strokeColor=none;fillColor=none;" vertex="1" parent="1">
          <mxGeometry x="863" y="2110" width="70" height="30" as="geometry" />
        </mxCell>
        <mxCell id="eOCsp5Y1OMVJkfmikGgT-219" value="&lt;font color=&quot;#007fff&quot;&gt;id&lt;/font&gt;" style="rounded=0;whiteSpace=wrap;html=1;dashed=1;strokeWidth=0;strokeColor=none;fillColor=none;" vertex="1" parent="1">
          <mxGeometry x="606.5" y="1876" width="58.5" height="34" as="geometry" />
        </mxCell>
        <mxCell id="eOCsp5Y1OMVJkfmikGgT-221" value="&lt;font color=&quot;#007fff&quot;&gt;:&lt;/font&gt;" style="rounded=0;whiteSpace=wrap;html=1;dashed=1;strokeWidth=0;strokeColor=none;fillColor=none;" vertex="1" parent="1">
          <mxGeometry x="820" y="1878" width="70" height="30" as="geometry" />
        </mxCell>
        <mxCell id="eOCsp5Y1OMVJkfmikGgT-223" value="&lt;font color=&quot;#007fff&quot;&gt;=&lt;/font&gt;" style="rounded=0;whiteSpace=wrap;html=1;dashed=1;strokeWidth=0;strokeColor=none;fillColor=none;" vertex="1" parent="1">
          <mxGeometry x="880" y="1960" width="70" height="30" as="geometry" />
        </mxCell>
        <mxCell id="eOCsp5Y1OMVJkfmikGgT-225" value="&lt;font color=&quot;#007fff&quot;&gt;int | str&lt;/font&gt;" style="rounded=0;whiteSpace=wrap;html=1;dashed=1;strokeWidth=0;strokeColor=none;fillColor=none;" vertex="1" parent="1">
          <mxGeometry x="990" y="1784" width="70" height="30" as="geometry" />
        </mxCell>
        <mxCell id="eOCsp5Y1OMVJkfmikGgT-226" value="&lt;font color=&quot;#007fff&quot;&gt;data&lt;/font&gt;" style="rounded=0;whiteSpace=wrap;html=1;dashed=1;strokeWidth=0;strokeColor=none;fillColor=none;" vertex="1" parent="1">
          <mxGeometry x="1140" y="1790" width="70" height="30" as="geometry" />
        </mxCell>
        <mxCell id="eOCsp5Y1OMVJkfmikGgT-227" style="edgeStyle=orthogonalEdgeStyle;rounded=0;orthogonalLoop=1;jettySize=auto;html=1;exitX=0.5;exitY=0;exitDx=0;exitDy=0;entryX=1;entryY=0;entryDx=0;entryDy=0;curved=1;strokeColor=#00ff73;" edge="1" parent="1" source="eOCsp5Y1OMVJkfmikGgT-183" target="eOCsp5Y1OMVJkfmikGgT-183">
          <mxGeometry relative="1" as="geometry">
            <Array as="points">
              <mxPoint x="1243" y="1790" />
              <mxPoint x="1271" y="1790" />
            </Array>
          </mxGeometry>
        </mxCell>
        <mxCell id="eOCsp5Y1OMVJkfmikGgT-228" value="&lt;font color=&quot;#007fff&quot;&gt;data&lt;/font&gt;" style="rounded=0;whiteSpace=wrap;html=1;dashed=1;strokeWidth=0;strokeColor=none;fillColor=none;" vertex="1" parent="1">
          <mxGeometry x="1220" y="1754" width="70" height="30" as="geometry" />
        </mxCell>
      </root>
    </mxGraphModel>
  </diagram>
</mxfile>
